Coordinates
version=1
nRows=13
nColumns=22
inDegrees=yes

Units are S.I. units (second, meters, Newtons, ...)
If the header above contains a line with 'inDegrees', this indicates whether rotational values are in degrees (yes) or radians (no).

endheader
time	pelvis_tilt	pelvis_list	pelvis_rotation	pelvis_tx	pelvis_ty	pelvis_tz	hip_flexion_r	hip_adduction_r	hip_rotation_r	knee_angle_r	ankle_angle_r	subtalar_angle_r	hip_flexion_l	hip_adduction_l	hip_rotation_l	knee_angle_l	ankle_angle_l	subtalar_angle_l	lumbar_extension	lumbar_bending	lumbar_rotation
      5.12000000	      0.76490374	      6.51276641	   -102.95540497	      0.29475172	      0.88371979	      0.35356719	     11.83630538	     -5.27068952	      6.89129127	     -6.65660977	      7.08725998	      2.84225859	      7.80122876	     -0.60874709	    -13.64050149	     -8.90217932	     11.58906016	      6.38486717	      6.94551581	     -3.30233786	     16.64297219
      5.13000000	      0.66328533	      6.52789239	   -103.18805778	      0.29336589	      0.88383695	      0.35472828	     11.73825250	     -5.05926075	      7.10021859	     -6.59963703	      7.10175331	      2.84769051	      7.79094541	     -0.82281735	    -13.83650200	     -9.14268922	     11.77773497	      6.29760392	      6.92827671	     -3.06980129	     16.75093806
      5.14000000	      0.57943353	      6.54178771	   -103.39758434	      0.29199354	      0.88393705	      0.35579032	     11.65826055	     -4.86383816	      7.27746427	     -6.56795289	      7.08983052	      2.80481729	      7.80038127	     -1.01982931	    -14.00942658	     -9.40277336	     11.96362258	      6.19449103	      6.90150263	     -2.87348700	     16.83773349
      5.15000000	      0.50121309	      6.55111099	   -103.57602622	      0.29065964	      0.88401400	      0.35680902	     11.59033725	     -4.67670237	      7.42624798	     -6.57555836	      7.14547278	      2.74740369	      7.79020570	     -1.20113454	    -14.15006764	     -9.62030767	     12.12530699	      6.10517945	      6.86451442	     -2.69310406	     16.84795436
      5.16000000	      0.43756704	      6.55397495	   -103.72633669	      0.28934852	      0.88407245	      0.35774410	     11.52927752	     -4.50781648	      7.56117959	     -6.60284812	      7.20272200	      2.66585491	      7.78176925	     -1.36408753	    -14.26444027	     -9.83289585	     12.26924391	      6.01710208	      6.81585544	     -2.54547937	     16.81248641
      5.17000000	      0.38750182	      6.55402732	   -103.85034275	      0.28807028	      0.88410848	      0.35860957	     11.47969130	     -4.35671504	      7.67407624	     -6.64985633	      7.27116863	      2.56993703	      7.76616419	     -1.50616967	    -14.35710872	    -10.01653902	     12.39538348	      5.93557621	      6.76199753	     -2.42538541	     16.72779951
      5.18000000	      0.34700369	      6.55519903	   -103.95024808	      0.28682646	      0.88411934	      0.35942716	     11.43710687	     -4.22022773	      7.76465665	     -6.70604528	      7.34866662	      2.46558309	      7.74584714	     -1.63362017	    -14.43833481	    -10.17283113	     12.50959657	      5.86116675	      6.70936064	     -2.32401210	     16.61022120
      5.19000000	      0.31481761	      6.56067863	   -104.02924583	      0.28561188	      0.88410774	      0.36017439	     11.40407517	     -4.09545943	      7.84004227	     -6.76428416	      7.43354197	      2.36371810	      7.72461749	     -1.74917793	    -14.50663384	    -10.29942702	     12.60710799	      5.79882466	      6.65622156	     -2.24064678	     16.46726492
      5.20000000	      0.28625984	      6.57384247	   -104.09053557	      0.28444921	      0.88407263	      0.36089279	     11.37832821	     -3.97973385	      7.90166911	     -6.82078594	      7.51693426	      2.25842608	      7.70322730	     -1.85681464	    -14.57035016	    -10.40125961	     12.69814498	      5.74622976	      6.61161429	     -2.15932252	     16.31178656
      5.21000000	      0.26436534	      6.60006877	   -104.13909204	      0.28332242	      0.88401729	      0.36154739	     11.36484438	     -3.87157780	      7.95718496	     -6.86521150	      7.59392545	      2.16037353	      7.68739313	     -1.95599884	    -14.62576709	    -10.47010215	     12.77188539	      5.70948167	      6.57449010	     -2.08567486	     16.15408733
      5.22000000	      0.24368398	      6.64037867	   -104.17911429	      0.28223626	      0.88394668	      0.36216370	     11.36223833	     -3.76534178	      8.01223705	     -6.89923288	      7.66145131	      2.06519216	      7.67841647	     -2.05384783	    -14.68049730	    -10.51588845	     12.83569165	      5.68693085	      6.55062377	     -2.00820297	     16.00548581
      5.23000000	      0.22457361	      6.69485980	   -104.21683790	      0.28119250	      0.88386878	      0.36273182	     11.37209326	     -3.66065104	      8.07351252	     -6.92090623	      7.71577958	      1.97583089	      7.67811843	     -2.15007532	    -14.73584264	    -10.54078810	     12.88592084	      5.67898292	      6.53972719	     -1.92667301	     15.87265478
      5.24000000	      0.20443548	      6.76041929	   -104.25356879	      0.28018915	      0.88378795	      0.36324290	     11.39168579	     -3.55478314	      8.14182358	     -6.93181059	      7.75667270	      1.88742820	      7.68626728	     -2.24825584	    -14.79647291	    -10.55097027	     12.92852381	      5.68433674	      6.53499217	     -1.83902519	     15.75873723
